<?xml version="1.0" encoding="UTF-8"?>
<svg version="1.1" xmlns="http://www.w3.org/2000/svg" width="3333" height="3333">
<path d="M0 0 C0.70211231 -0.00044186 1.40422462 -0.00088371 2.12761307 -0.00133896 C27.36829572 -0.00963622 52.4317057 0.73879686 77.5625 3.25 C78.41426819 3.33485657 79.26603638 3.41971313 80.14361572 3.50714111 C162.49952016 11.83066289 243.2852106 32.70833674 336.5625 72.25 C337.62275391 72.72228027 338.68300781 73.19456055 339.77539062 73.68115234 C365.34808116 85.14328177 390.56541252 97.50945625 414.78076172 111.63037109 C417.69157858 113.32515423 420.61258592 115.00135758 423.53515625 116.67578125 C437.12434894 124.49242879 450.42827687 132.69200262 463.5625 141.25 C464.25102051 141.69794922 464.93954102 142.14589844 465.64892578 142.60742188 C488.34852302 157.42834556 510.38423776 173.32894569 531.5625 190.25 C532.45195313 190.95640625 533.34140625 191.6628125 534.2578125 192.390625 C538.58851631 195.838897 542.89304711 199.31920704 547.1875 202.8125 C548.10015625 203.55371094 549.0128125 204.29492188 549.953125 205.05859375 C553.00240813 207.61944381 555.88322273 210.33001151 558.7109375 213.1328125 C560.55195461 214.47248356 560.55195461 214.47248356 563.01171875 214.171875 C566.08148361 213.06243471 567.66366926 211.65059424 570 209.375 C573.94684389 205.67921275 577.98192505 202.24686486 582.25 198.9375 C583.45836896 198.00004592 584.66670172 197.06254518 585.875 196.125 C586.48472656 195.65191406 587.09445312 195.17882812 587.72265625 194.69140625 C590.14558998 192.79318429 592.53419277 190.85423436 594.92456055 188.9152832 C604.2381346 181.37548599 613.8533466 174.27014897 623.5625 167.25 C624.24473633 166.75564453 624.92697266 166.26128906 625.62988281 165.75195312 C660.07585881 140.87714728 696.33123233 118.69067904 733.81689453 98.71679688 C736.32025193 97.37941725 738.81546958 96.02820226 741.30859375 94.671875 C812.51921339 56.19752639 892.15080431 29.91862569 1057.5625 3.25 C1058.21708191 3.19886047 1058.87166382 3.14772095 1059.54608154 3.09503174 C1099.71772223 -0.03438882 1140.40163649 -0.06787634 1180.5625 3.25 C1181.32808228 3.31316406 1182.09366455 3.37632812 1182.88244629 3.44140625 C1263.72817388 10.2190416 1343.32606019 29.29208642 1511.5625 107.25 C1512.49384766 107.78818359 1513.42519531 108.32636719 1514.38476562 108.88085938 C1528.33981721 116.95113666 1541.84331492 125.62052338 1555.25 134.5625 C1556.00904633 135.06842682 1556.76809265 135.57435364 1557.55014038 136.09561157 C1570.11140271 144.48289718 1582.50016319 153.09311562 1594.5625 162.1875 C1595.22636719 162.68709229 1595.89023438 163.18668457 1596.57421875 163.70141602 C1616.07431565 178.42631061 1635.22443796 193.77905661 1653.3125 210.21484375 C1655.31239375 212.02377543 1657.33519432 213.79891801 1659.375 215.5625 C1667.89406814 222.99732311 1676.16872832 230.69231388 1684.05078125 238.80078125 C1686.11344071 240.81211481 1688.20907506 242.68230742 1690.39453125 244.5546875 C1694.53196236 248.14445351 1698.24140849 252.02613339 1701.9375 256.0625 C1706.23696544 260.70848953 1710.55526458 265.30479075 1715.0625 269.75 C1718.44434592 273.09291019 1721.63628618 276.52023596 1724.7265625 280.1328125 C1726.9145617 282.65599455 1729.17543113 285.10554519 1731.4375 287.5625 C1735.50790056 292.02522832 1739.36426909 296.61258 1743.15625 301.3125 C1745.86030389 304.61355281 1748.6440942 307.83721603 1751.4375 311.0625 C1757.37706225 317.9536635 1763.01293228 325.04292486 1768.5625 332.25 C1769.16078613 333.02230957 1769.75907227 333.79461914 1770.37548828 334.59033203 C1827.69200887 408.63318315 1872.47434126 491.63422232 1951.88035583 863.5866394 C1951.87490197 866.04417067 1951.872544 868.50169226 1951.8704834 870.95922852 C1951.83673764 896.82333634 1951.12429001 922.49759393 1948.5625 948.25 C1948.41618195 949.7756853 1948.27018422 951.30140136 1948.12451172 952.82714844 C1940.4975889 1031.56172504 1922.04196686 1109.8328237 1859.5625 1259.25 C1859.10520508 1260.19182129 1858.64791016 1261.13364258 1858.17675781 1262.10400391 C1851.65909595 1275.51236875 1844.60400345 1288.5361094 1837.16357422 1301.45361328 C1835.62256763 1304.14508774 1834.10604679 1306.84873209 1832.59765625 1309.55859375 C1825.69189104 1321.91280629 1818.15700395 1333.76299891 1810.33300781 1345.55395508 C1808.50488393 1348.337735 1806.71510256 1351.14322152 1804.93359375 1353.95703125 C1802.180328 1358.29979936 1799.36200196 1362.58343802 1796.4375 1366.8125 C1795.97432373 1367.48321533 1795.51114746 1368.15393066 1795.03393555 1368.8449707 C1780.7938778 1389.37709189 1765.77059498 1409.32153881 1749.89794922 1428.61914062 C1748.11890318 1430.79172336 1746.37058832 1432.98798491 1744.625 1435.1875 C1735.33069112 1446.82984481 1725.78047608 1458.2571753 1716.04345703 1469.53076172 C1714.51178886 1471.3088704 1712.98738886 1473.09298135 1711.46484375 1474.87890625 C1706.24456241 1480.99949103 1700.97980409 1487.06467736 1695.57421875 1493.0234375 C1693.71515331 1495.08104391 1691.88321642 1497.15846763 1690.0625 1499.25 C1686.66634136 1503.14929326 1683.20348157 1506.986291 1679.73828125 1510.82421875 C1677.88806437 1512.88702788 1676.06305191 1514.9671237 1674.25 1517.0625 C1670.57672761 1521.28376641 1666.76618875 1525.37428981 1662.96118164 1529.47631836 C1660.32520845 1532.32313646 1657.71806691 1535.18337654 1655.1875 1538.125 C1650.66610702 1543.35045417 1645.89528426 1548.34871376 1641.171875 1553.390625 C1637.97215215 1556.80704866 1634.79438999 1560.2429557 1631.625 1563.6875 C1627.01978499 1568.68519606 1622.39221048 1573.66164833 1617.75 1578.625 C1617.13970947 1579.27911865 1616.52941895 1579.9332373 1615.90063477 1580.60717773 C1612.38481686 1584.36015675 1608.8090063 1588.03515838 1605.14013672 1591.63891602 C1603.51089832 1593.30269568 1602.00066668 1595.03251494 1600.5 1596.8125 C1596.51564313 1601.44736412 1592.16526504 1605.70205279 1587.80053711 1609.97485352 C1584.85344157 1612.87889555 1582.03187016 1615.82239087 1579.34375 1618.96875 C1574.08613326 1625.05960511 1568.25655628 1630.6121679 1562.53271484 1636.25927734 C1561.0300623 1637.74359897 1559.53061835 1639.23111204 1558.03125 1640.71875 C1557.14888672 1641.58951172 1556.26652344 1642.46027344 1555.35742188 1643.35742188 C1553.35090777 1645.38644765 1551.48741677 1647.49445294 1549.64097595 1649.66954041 C1544.53615487 1655.51950192 1539.00405585 1660.94822185 1533.51196289 1666.42993164 C1532.30204469 1667.64120715 1531.09233883 1668.85269479 1529.88282776 1670.06437683 C1526.6165425 1673.33519726 1523.34713049 1676.60287505 1520.0769875 1679.869838 C1516.64393294 1683.30034866 1513.21333272 1686.73331236 1509.78233337 1690.1658783 C1504.02180611 1695.92822134 1498.25918174 1701.68846084 1492.49536133 1707.44750977 C1485.84574304 1714.09168658 1479.1997347 1720.739458 1472.55558974 1727.38910776 C1466.83577361 1733.11347187 1461.11399852 1738.83587241 1455.39060205 1744.55665678 C1451.97892661 1747.96677872 1448.56791725 1751.37755954 1445.15867805 1754.79011726 C1441.95241133 1757.99928723 1438.74368028 1761.20597321 1435.53308678 1764.41081429 C1434.36001937 1765.5825672 1433.18778764 1766.75515747 1432.01648712 1767.92867661 C1426.56752502 1773.38700204 1421.12967826 1778.80953558 1415.23849392 1783.7977438 C1412.09364781 1786.52276697 1409.20222014 1789.50815392 1406.28125 1792.46875 C1405.29457336 1793.46110657 1405.29457336 1793.46110657 1404.28796387 1794.47351074 C1402.21032726 1796.56322735 1400.13599373 1798.65617315 1398.0625 1800.75 C1395.3259185 1803.513417 1392.58587737 1806.27333722 1389.84375 1809.03125 C1389.23204956 1809.65124878 1388.62034912 1810.27124756 1387.9901123 1810.91003418 C1384.26798319 1814.65285441 1380.41235434 1818.1687281 1376.41833496 1821.61901855 C1373.92292357 1823.81208516 1371.58226563 1826.13508991 1369.25 1828.5 C1368.79197998 1828.96180664 1368.33395996 1829.42361328 1367.86206055 1829.89941406 C1366.42633825 1831.34712722 1364.99397568 1832.79808857 1363.5625 1834.25 C1358.01333158 1839.87838837 1352.46770452 1845.43661223 1346.45703125 1850.578125 C1342.99442819 1853.63378296 1339.79481596 1856.95455287 1336.5625 1860.25 C1332.03271287 1864.86825953 1327.43290516 1869.2819728 1322.53125 1873.50390625 C1319.22494565 1876.43628332 1316.15530628 1879.59583011 1313.0625 1882.75 C1308.69877105 1887.16085229 1304.32809026 1891.44763958 1299.58203125 1895.44921875 C1296.2368046 1898.43209977 1293.1345071 1901.65851929 1289.98583984 1904.84619141 C1286.65619665 1908.20109904 1283.22291869 1911.34748182 1279.62109375 1914.41015625 C1276.49173959 1917.20697942 1273.57708371 1920.21475348 1270.63085938 1923.20117188 C1267.40867513 1926.45017042 1264.06900526 1929.47451392 1260.58984375 1932.44140625 C1257.24506946 1935.42528004 1254.14914843 1938.65619732 1251 1941.84375 C1248.30966094 1944.49959753 1245.49676475 1946.95135432 1242.625 1949.40625 C1239.27350948 1952.4022794 1236.16614972 1955.63896618 1233.0078125 1958.8359375 C1230.27126521 1961.53751294 1227.41270634 1964.04078735 1224.4921875 1966.5390625 C1221.72142418 1968.99573119 1219.159571 1971.64359977 1216.5625 1974.28125 C1213.99944772 1976.80425459 1211.28904176 1979.12562817 1208.5625 1981.46875 C1205.77364467 1983.95257428 1203.18563017 1986.61711437 1200.56640625 1989.27734375 C1197.98003849 1991.82337829 1195.2471472 1994.17021557 1192.49609375 1996.53515625 C1190.03103528 1998.72133942 1187.74353423 2001.05587289 1185.43701172 2003.40673828 C1183.63010179 2005.1835252 1181.76896091 2006.84444589 1179.84765625 2008.49609375 C1175.62957083 2012.16403623 1171.55560202 2015.96663762 1167.5 2019.8125 C1166.00414222 2021.22551027 1164.50804383 2022.63826585 1163.01171875 2024.05078125 C1162.26712402 2024.75412598 1161.5225293 2025.4574707 1160.75537109 2026.18212891 C1150.23553425 2036.10230459 1139.6138101 2045.91297331 1128.97851562 2055.70898438 C1127.38115246 2057.18060186 1125.78418663 2058.65264851 1124.1875 2060.125 C1123.39388062 2060.85674438 1123.39388062 2060.85674438 1122.58422852 2061.60327148 C1118.33082796 2065.52992919 1114.10186004 2069.48231362 1109.875 2073.4375 C1105.03518796 2077.96498739 1100.15265586 2082.43520954 1095.2109375 2086.8515625 C1091.17657878 2090.5050968 1087.21086711 2094.23130669 1083.23706055 2097.95043945 C1077.38366072 2103.4259625 1071.47987296 2108.84370919 1065.5625 2114.25 C1063.56176337 2116.0825302 1061.56213714 2117.91627021 1059.5625 2119.75 C1058.56252026 2120.66668877 1057.56252028 2121.58335546 1056.5625 2122.5 C1056.0675 2122.95375 1055.5725 2123.4075 1055.0625 2123.875 C1053.5625 2125.25 1052.0625 2126.625 1050.5625 2128 C1050.06733887 2128.45391113 1049.57217773 2128.90782227 1049.06201172 2129.37548828 C1048.06369339 2130.29058633 1047.06532114 2131.20562555 1046.06689453 2132.12060547 C1043.5407158 2134.43578852 1041.01553168 2136.7520401 1038.4921875 2139.0703125 C1033.88900235 2143.29766751 1029.27836224 2147.51526083 1024.625 2151.6875 C1020.73879402 2155.17448097 1016.89407193 2158.70331985 1013.0625 2162.25 C1008.43627683 2166.53224608 1003.77571377 2170.77207812 999.08203125 2174.98046875 C994.21039755 2179.36871554 989.39037676 2183.81373809 984.5625 2188.25 C976.46568025 2195.6900435 968.32711689 2203.08044033 960.140625 2210.421875 C955.54801896 2214.54644476 950.98070551 2218.69621893 946.4375 2222.875 C943.20032784 2225.85218281 939.95112271 2228.80952856 936.625 2231.6875 C933.03291409 2234.79964124 929.54698008 2238.01872086 926.0625 2241.25 C921.97948978 2245.03631688 917.86480283 2248.76767049 913.65234375 2252.41015625 C910.91879441 2254.81670156 908.24135994 2257.28303196 905.5625 2259.75 C901.65270819 2263.35015323 897.70383464 2266.89417664 893.6875 2270.375 C890.94426582 2272.79550075 888.25365432 2275.27200642 885.5625 2277.75 C881.65268405 2281.35012756 877.70383532 2284.89417605 873.6875 2288.375 C870.94426506 2290.79550142 868.25368757 2293.27204178 865.5625 2295.75 C861.60390277 2299.3941694 857.61073168 2302.98913779 853.546875 2306.515625 C849.50876738 2310.04499465 845.54275811 2313.65570631 841.5625 2317.25 C832.07377959 2325.81860207 832.07377959 2325.81860207 827.625 2329.6875 C824.39690488 2332.49822525 821.22511557 2335.365799 818.0625 2338.25 C814.27587002 2341.70328153 810.4577368 2345.11099051 806.58984375 2348.47265625 C804.22760827 2350.54359487 801.89454147 2352.64512848 799.5625 2354.75 C795.94573655 2358.01390848 792.29860392 2361.23790949 788.625 2364.4375 C786.25285571 2366.52211164 783.90693935 2368.63428644 781.5625 2370.75 C777.94573655 2374.01390848 774.29860392 2377.23790949 770.625 2380.4375 C768.25285571 2382.52211164 765.90693935 2384.63428644 763.5625 2386.75 C759.94226277 2390.01704335 756.29266435 2393.24520776 752.61328125 2396.4453125 C750.30161203 2398.47958141 748.0271857 2400.5522231 745.75 2402.625 C742.37309018 2405.67858867 738.93032868 2408.59429205 735.375 2411.4375 C730.73813596 2415.18240717 726.38986056 2419.15821237 722.0625 2423.25 C716.97986635 2428.0519623 711.81525338 2432.63107745 706.34375 2436.9921875 C704.3234508 2438.63226185 702.3570179 2440.28911059 700.40625 2442.0078125 C673.08066166 2466.07391106 641.991483 2483.71014718 606.4375 2492 C605.59227783 2492.19875732 604.74705566 2492.39751465 603.8762207 2492.60229492 C590.12655929 2495.64776726 576.47958 2496.63304962 562.4375 2496.5625 C561.67758759 2496.56067719 560.91767517 2496.55885437 560.13473511 2496.55697632 C500.42424002 2496.31711238 453.15598221 2469.63612019 409.96875 2430.375 C407.49492102 2428.19031986 404.95201954 2426.12411563 402.375 2424.0625 C396.30433338 2419.15595269 390.67181085 2413.81799383 384.9921875 2408.46875 C380.79441078 2404.51683983 376.47959495 2400.72654227 372.08496094 2396.99560547 C364.94227988 2390.92959403 357.90181241 2384.79263174 351.04296875 2378.40625 C347.58880626 2375.19030561 344.08814408 2372.04482045 340.51953125 2368.95703125 C338.1769085 2366.91366569 335.86976578 2364.83319141 333.5625 2362.75 C330.60380249 2360.07951656 327.63323528 2357.42701942 324.625 2354.8125 C320.43085635 2351.16062947 316.33155708 2347.40733816 312.22265625 2343.66015625 C309.37222966 2341.07761116 306.48424108 2338.54344897 303.58203125 2336.01953125 C298.66513444 2331.71130252 293.83610968 2327.30313844 288.984375 2322.921875 C285.2194915 2319.52655062 281.45056449 2316.13941658 277.625 2312.8125 C273.42807919 2309.15821138 269.3259724 2305.40255027 265.21484375 2301.65234375 C263.03789004 2299.68058156 260.84411326 2297.73634663 258.625 2295.8125 C254.67582633 2292.38231424 250.83227695 2288.83996482 246.98461914 2285.29711914 C244.2077363 2282.74459547 241.41277985 2280.22024254 238.5625 2277.75 C234.6316075 2274.3432265 230.81053427 2270.81997215 226.984375 2267.296875 C224.20755943 2264.74444857 221.41269283 2262.22016712 218.5625 2259.75 C214.6316075 2256.3432265 210.81053427 2252.81997215 206.984375 2249.296875 C204.20755943 2246.74444857 201.41269283 2244.22016712 198.5625 2241.75 C194.68277047 2238.38542128 190.90392491 2234.91411092 187.125 2231.4375 C183.95470211 2228.52210044 180.76855243 2225.62616922 177.5625 2222.75 C173.82955169 2219.40114927 170.12804155 2216.02034435 166.4375 2212.625 C163.20036909 2209.6477736 159.95112144 2206.69047034 156.625 2203.8125 C152.493391 2200.23062691 148.49320073 2196.51162042 144.48291016 2192.79541016 C140.38556071 2189.00112961 136.24839227 2185.25453553 132.08984375 2181.52734375 C128.713266 2178.4847706 125.36769519 2175.40881256 122.02099609 2172.33349609 C118.90598908 2169.47383388 115.77389758 2166.63476963 112.625 2163.8125 C108.16963196 2159.81482627 103.77166481 2155.75799115 99.37915039 2151.69165039 C96.12884649 2148.68603927 92.85952925 2145.70448076 89.5625 2142.75 C84.61385091 2138.31383237 79.73415228 2133.80566166 74.85546875 2129.29296875 C71.74467159 2126.41605238 68.62451655 2123.54950383 65.5 2120.6875 C65.00902832 2120.23777832 64.51805664 2119.78805664 64.01220703 2119.32470703 C63.02365485 2118.41937398 62.03504823 2117.51410037 61.04638672 2116.60888672 C58.04978269 2113.86471132 55.05511017 2111.1184281 52.06005859 2108.37255859 C49.57321125 2106.09274634 47.08593204 2103.81340942 44.59765625 2101.53515625 C37.78415316 2095.29551623 30.98935775 2089.03592351 24.20361328 2082.76611328 C21.49072414 2080.25985896 18.77655141 2077.75499554 16.0625 2075.25 C14.97916043 2074.25000676 13.89582709 2073.25000676 12.8125 2072.25 C12.27625 2071.755 11.74 2071.26 11.1875 2070.75 C9.5625 2069.25 7.9375 2067.75 6.3125 2066.25 C5.77641113 2065.75516113 5.24032227 2065.26032227 4.68798828 2064.75048828 C3.60297744 2063.74891474 2.51801662 2062.747287 1.43310547 2061.74560547 C-1.24915757 2059.26923728 -3.93223934 2056.79376936 -6.6171875 2054.3203125 C-13.05093565 2048.39117204 -19.45923952 2042.43572802 -25.85107422 2036.46142578 C-29.86684595 2032.70999901 -33.89568698 2028.97334453 -37.9375 2025.25 C-44.49606587 2019.20693701 -51.01494903 2013.1218432 -57.53027344 2007.03222656 C-60.6646117 2004.10331344 -63.80116876 2001.17677864 -66.9375 1998.25 C-68.18880749 1997.08203704 -69.44010957 1995.91406829 -70.69140625 1994.74609375 C-73.17793125 1992.42529393 -75.66494869 1990.10502352 -78.15234375 1987.78515625 C-91.50590834 1975.3295461 -104.82508186 1962.83757892 -118.1171875 1950.31640625 C-121.07713763 1947.52870333 -124.04113909 1944.74539026 -127.0078125 1941.96484375 C-127.76006104 1941.25900146 -128.51230957 1940.55315918 -129.28735352 1939.82592773 C-130.70874099 1938.49236736 -132.13102848 1937.15976528 -133.55444336 1935.82836914 C-137.6499321 1931.98326403 -141.65263868 1928.06273233 -145.59423828 1924.05981445 C-147.4182781 1922.2688731 -149.30384831 1920.59406939 -151.25 1918.9375 C-154.63945649 1916.02749511 -157.80200761 1912.92839292 -160.9375 1909.75 C-163.97033829 1906.67594766 -167.01689426 1903.6700074 -170.3125 1900.875 C-174.05293272 1897.68870546 -177.48553228 1894.24119462 -180.9375 1890.75 C-185.9759977 1885.6541771 -185.9759977 1885.6541771 -191.3125 1880.875 C-196.09352263 1876.82638935 -200.42537141 1872.3119646 -204.80810547 1867.84228516 C-207.88182776 1864.72633471 -210.99069461 1861.72651988 -214.3125 1858.875 C-219.97503764 1853.9923657 -225.12992005 1848.60264544 -230.37109375 1843.27734375 C-233.92564776 1839.68822357 -237.47067107 1836.15730103 -241.3125 1832.875 C-247.36068396 1827.68308934 -252.8525624 1821.89044306 -258.44677734 1816.22021484 C-259.93109897 1814.7175623 -261.41861204 1813.21811835 -262.90625 1811.71875 C-264.21239258 1810.39520508 -264.21239258 1810.39520508 -265.54492188 1809.04492188 C-267.69219113 1806.92167428 -269.93004592 1804.9383634 -272.21875 1802.96875 C-276.85228754 1798.95017999 -281.15632277 1794.6391665 -285.46875 1790.28125 C-286.72177917 1789.02254089 -286.72177917 1789.02254089 -288.00012207 1787.73840332 C-291.54086129 1784.1814548 -295.07557324 1780.6185388 -298.61083984 1777.05615234 C-301.2072206 1774.44159836 -303.80666566 1771.83011816 -306.40625 1769.21875 C-307.19294067 1768.42376099 -307.97963135 1767.62877197 -308.79016113 1766.80969238 C-309.54454468 1766.05200562 -310.29892822 1765.29431885 -311.07617188 1764.51367188 C-311.72710815 1763.85749878 -312.37804443 1763.20132568 -313.04870605 1762.52526855 C-315.04024471 1760.62837607 -317.06720142 1758.83012651 -319.14964294 1757.03587341 C-323.76555377 1753.02046014 -328.08539529 1748.74253196 -332.40454102 1744.41235352 C-333.26253296 1743.55611389 -334.1205249 1742.69987427 -335.0045166 1741.81768799 C-337.33483001 1739.49099646 -339.66291128 1737.1621017 -341.98981977 1734.83200574 C-344.43937327 1732.37989904 -346.89139015 1729.93025747 -349.34300232 1727.48020935 C-353.45759876 1723.36742603 -357.57009656 1719.25255308 -361.68139648 1715.13647461 C-366.41696951 1710.39546062 -371.15613389 1705.65805951 -375.89717919 1700.92251831 C-379.98674139 1696.83751175 -384.07432959 1692.75053763 -388.16031021 1688.66194862 C-390.59233604 1686.22837346 -393.02500928 1683.79545579 -395.45947456 1681.36432076 C-398.175368 1678.65098003 -400.88801288 1675.93443151 -403.59985352 1673.21704102 C-404.39433395 1672.42458481 -405.18881439 1671.6321286 -406.00737 1670.81565857 C-410.12722642 1666.6802486 -414.08951267 1662.46919372 -417.88125515 1658.02998257 C-420.58559475 1654.93684633 -423.51338359 1652.07104745 -426.4375 1649.1875 C-427.076875 1648.55191162 -427.71625 1647.91632324 -428.375 1647.26147461 C-430.39338397 1645.2551635 -432.41499876 1643.25215999 -434.4375 1641.25 C-449.76341066 1626.07822925 -449.76341066 1626.07822925 -454.90625 1620.00390625 C-457.89889977 1616.57610077 -461.19065983 1613.43464017 -464.4375 1610.25 C-469.09669421 1605.68006238 -473.55666017 1601.03930554 -477.81640625 1596.09375 C-480.07996261 1593.51929553 -482.48452227 1591.1452606 -484.9375 1588.75 C-488.72430573 1585.01997377 -492.31147309 1581.18765921 -495.76171875 1577.14453125 C-498.13152069 1574.46538454 -500.67771712 1571.98358347 -503.25 1569.5 C-505.14282164 1567.55309774 -506.92439757 1565.56553052 -508.703125 1563.515625 C-512.42083306 1559.23570763 -516.28528957 1555.11136777 -520.1875 1551 C-529.7510784 1540.88015575 -539.13937595 1530.61457555 -548.4375 1520.25 C-549.93721128 1518.58307353 -551.43721321 1516.91640851 -552.9375 1515.25 C-553.68 1514.42371094 -554.4225 1513.59742188 -555.1875 1512.74609375 C-556.68232689 1511.08777017 -558.1823058 1509.43407559 -559.6875 1507.78515625 C-563.52095683 1503.57234692 -567.23686546 1499.30955031 -570.8125 1494.875 C-574.05702517 1490.86173716 -577.42497183 1487.02584616 -580.9375 1483.25 C-585.14773142 1478.72008675 -589.11387846 1474.04707836 -592.9921875 1469.23046875 C-595.90754418 1465.67708672 -598.91579818 1462.21292761 -601.9375 1458.75 C-607.22671789 1452.67809314 -612.37414564 1446.51212866 -617.4375 1440.25 C-618.43156922 1439.03716792 -619.42641311 1437.82497052 -620.421875 1436.61328125 C-626.5866604 1429.09413243 -632.61688422 1421.49159622 -638.49121094 1413.74316406 C-641.26592085 1410.08400498 -644.06050732 1406.44498091 -646.91015625 1402.84375 C-654.52867597 1393.20822111 -661.67580536 1383.36798265 -668.49707031 1373.15332031 C-669.90914823 1371.04053338 -671.32485715 1368.93051309 -672.74511719 1366.82324219 C-695.90182749 1332.46361499 -716.87339445 1297.25795617 -735.45050049 1260.2175293 C-736.39436736 1258.33598256 -737.34134728 1256.45602862 -738.28857422 1254.57617188 C-754.07528903 1223.09855128 -767.21866338 1190.56314923 -778.72583008 1157.30102539 C-779.40761008 1155.33614245 -780.09603693 1153.3737407 -780.78710938 1151.41210938 C-803.80702071 1085.83496406 -817.54094315 1016.84073833 -823.6875 947.6875 C-823.77067474 946.75258728 -823.85384949 945.81767456 -823.93954468 944.85443115 C-824.48387772 938.6561353 -824.9814366 932.45540255 -825.4375 926.25 C-825.49264771 925.51652344 -825.54779541 924.78304687 -825.60461426 924.02734375 C-826.83576869 907.01148334 -826.68316155 889.92599269 -826.6875 872.875 C-826.68794186 872.07843113 -826.68838371 871.28186226 -826.68883896 870.46115494 C-826.69662909 843.61858712 -826.05227116 816.98309857 -823.4375 790.25 C-823.355 789.38461609 -823.2725 788.51923218 -823.1875 787.62762451 C-815.14344686 703.49959086 -795.06174003 620.28937835 -742.4375 495.25 C-741.92719238 494.16235352 -741.41688477 493.07470703 -740.89111328 491.95410156 C-734.02755748 477.35887223 -726.84617224 463.01443396 -718.95117188 448.94921875 C-717.4100452 446.20104189 -715.88414656 443.44477921 -714.359375 440.6875 C-691.43494594 399.44486928 -664.87946002 360.12299786 -635.4375 323.25 C-634.75429688 322.38375 -634.07109375 321.5175 -633.3671875 320.625 C-629.20726347 315.37035912 -624.91787333 310.23722225 -620.57202148 305.13647461 C-617.66094337 301.71536798 -614.81387067 298.25204556 -612 294.75 C-608.13359833 289.9950895 -604.05221132 285.48338355 -599.86157227 281.015625 C-597.18489888 278.16050673 -594.56499617 275.26923334 -591.99609375 272.31640625 C-581.49906519 260.26601217 -570.22108726 248.93261898 -558.9375 237.625 C-558.09751968 236.78113739 -558.09751968 236.78113739 -557.24057007 235.92022705 C-551.71717887 230.37669707 -546.19009998 224.887495 -540.23486328 219.80224609 C-537.10222565 217.09682501 -534.12852798 214.22187777 -531.125 211.375 C-525.9312567 206.4860114 -520.62727766 201.8474669 -515.05078125 197.39453125 C-512.23330521 195.08243208 -509.55485509 192.65746435 -506.875 190.1875 C-501.90505862 185.62470071 -496.75399814 181.39965044 -491.4375 177.25 C-489.9525 176.07244141 -489.9525 176.07244141 -488.4375 174.87109375 C-473.53269024 163.05825116 -458.53401116 151.34172735 -442.71386719 140.77246094 C-440.08725474 139.01575189 -437.46975165 137.24579964 -434.8515625 135.4765625 C-406.11315819 116.11794073 -376.49085725 98.51955434 -345.57861328 82.84619141 C-342.67944932 81.37294922 -339.78989539 79.88255317 -336.90234375 78.38671875 C-288.44506103 53.4701698 -236.17692229 35.55185635 -183.4375 22.25 C-182.76609985 22.08026672 -182.09469971 21.91053345 -181.4029541 21.73565674 C-143.29179848 12.13415529 -104.45063156 5.94893282 -65.3125 2.5 C-64.30825485 2.41125107 -64.30825485 2.41125107 -63.28372192 2.32070923 C-58.67131096 1.92002475 -54.05611387 1.56988838 -49.4375 1.25 C-48.76214203 1.20194214 -48.08678406 1.15388428 -47.39096069 1.10437012 C-31.61180237 0.0178783 -15.80994379 0.00457479 0 0 Z M-59.4375 282.25 C-60.13286865 282.34945923 -60.8282373 282.44891846 -61.54467773 282.5513916 C-93.22744661 287.10633815 -124.0436735 294.10718053 -154.4375 304.25 C-155.51338379 304.60819824 -156.58926758 304.96639648 -157.69775391 305.33544922 C-205.54269495 321.46088438 -252.56043775 345.78751797 -292.51220703 376.76904297 C-295.21048721 378.84459047 -297.94545531 380.86939155 -300.67895508 382.89819336 C-307.76052434 388.16157827 -314.67849951 393.57517444 -321.4375 399.25 C-322.48433585 400.12114079 -323.53121266 400.99223238 -324.578125 401.86328125 C-331.47838928 407.62960758 -338.1643826 413.58384185 -344.75024414 419.70629883 C-346.00418301 420.85355038 -347.27110921 421.98663973 -348.54467773 423.11206055 C-355.39235944 429.17699088 -361.88911673 435.54811018 -368.34301758 442.02514648 C-370.1292467 443.8167595 -371.92079347 445.60293055 -373.71289062 447.38867188 C-379.50314514 453.17556405 -385.1311865 459.01083083 -390.4375 465.25 C-392.05717817 467.02570221 -393.68161718 468.79708307 -395.3125 470.5625 C-400.2332178 475.96491457 -404.86542553 481.55168859 -409.4375 487.25 C-410.34975289 488.37020516 -411.26253803 489.48997705 -412.17578125 490.609375 C-432.70728464 515.87493342 -451.27417063 542.98420061 -467.4375 571.25 C-467.86144043 571.99040527 -468.28538086 572.73081055 -468.72216797 573.49365234 C-471.69331371 578.71052418 -474.57837313 583.97109727 -477.4375 589.25 C-477.86353516 590.02827148 -478.28957031 590.80654297 -478.72851562 591.60839844 C-515.59895169 659.14957503 -537.96427936 735.78141419 -545.4375 812.25 C-545.52363556 813.10160706 -545.60977112 813.95321411 -545.69851685 814.83062744 C-547.43298139 832.37295014 -547.80174563 849.85963862 -547.75555801 867.47126389 C-547.74991143 869.65932031 -547.74709478 871.84736896 -547.74447632 874.03543091 C-547.70701938 895.57490671 -547.19612512 916.86459976 -544.4375 938.25 C-544.26337663 939.66819829 -544.09006063 941.0864959 -543.91748047 942.50488281 C-535.87399455 1007.91145893 -516.87862688 1070.86099984 -488.4375 1130.25 C-488.00260254 1131.16362305 -487.56770508 1132.07724609 -487.11962891 1133.01855469 C-480.43857886 1146.97430602 -472.93294753 1160.35183297 -464.99902344 1173.63085938 C-463.66611564 1175.86654338 -462.34787013 1178.10954264 -461.0390625 1180.359375 C-445.07012882 1207.66486552 -425.93825475 1232.98585364 -405.93017578 1257.42529297 C-404.61563798 1259.03223696 -403.30551698 1260.64279191 -401.99609375 1262.25390625 C-396.69702779 1268.76635404 -391.29023291 1275.18223544 -385.85351562 1281.57958984 C-384.43431397 1283.25375841 -383.02099229 1284.93271475 -381.609375 1286.61328125 C-376.70516388 1292.44577729 -371.72423864 1298.17618854 -366.59375 1303.8125 C-364.41588431 1306.27443513 -362.36195305 1308.80553647 -360.3125 1311.375 C-355.78504877 1316.97851799 -350.89399907 1322.19940933 -345.92919922 1327.41650391 C-342.2104277 1331.32835601 -338.60050821 1335.30945825 -335.06298828 1339.38598633 C-332.81387687 1341.96513406 -330.50571583 1344.48267361 -328.1875 1347 C-327.23303967 1348.03772984 -326.27861356 1349.07549116 -325.32421875 1350.11328125 C-324.8451709 1350.6335791 -324.36612305 1351.15387695 -323.87255859 1351.68994141 C-322.03029021 1353.69267958 -320.1928044 1355.6997686 -318.35546875 1357.70703125 C-309.49102723 1367.38894288 -300.59084464 1377.03683595 -291.625 1386.625 C-291.01495117 1387.27887695 -290.40490234 1387.93275391 -289.77636719 1388.60644531 C-286.26026518 1392.35963087 -282.68425307 1396.03491598 -279.01513672 1399.63891602 C-277.38589832 1401.30269568 -275.87566668 1403.03251494 -274.375 1404.8125 C-270.39064313 1409.44736412 -266.04026504 1413.70205279 -261.67553711 1417.97485352 C-258.74908888 1420.85854987 -255.94666854 1423.7786954 -253.28125 1426.90625 C-248.16441436 1432.83401271 -242.50494115 1438.25071173 -236.9375 1443.75 C-234.73652946 1445.92402773 -232.53914212 1448.10159066 -230.34375 1450.28125 C-229.61061584 1451.00193665 -229.61061584 1451.00193665 -228.8626709 1451.73718262 C-226.26117591 1454.32067722 -223.80096719 1456.96923772 -221.42417908 1459.76133728 C-216.74609396 1465.12480634 -211.70761637 1470.12005659 -206.67211914 1475.14477539 C-205.60013044 1476.21812187 -204.52835399 1477.29168037 -203.45677185 1478.36543274 C-200.56650447 1481.2602296 -197.67311827 1484.15188966 -194.7789948 1487.04283071 C-191.73831975 1490.08095886 -188.70010252 1493.12154338 -185.66148376 1496.16172791 C-180.56005422 1501.26497237 -175.45652997 1506.36611488 -170.35180664 1511.46606445 C-164.46563014 1517.34679965 -158.58306452 1523.2311284 -152.70236117 1529.11733633 C-147.63646859 1534.18777936 -142.56861428 1539.25625545 -137.49914068 1544.32311815 C-134.47870523 1547.34200145 -131.45893309 1550.36153993 -128.44093513 1553.38286018 C-125.60237733 1556.22432485 -122.76134959 1559.06329741 -119.91846657 1561.90043449 C-118.88085495 1562.93673353 -117.84407531 1563.97386645 -116.80823135 1565.01193237 C-111.73408493 1570.09595162 -106.64412422 1575.09181801 -101.16763973 1579.74359798 C-97.93231427 1582.56053855 -94.9495439 1585.63600537 -91.9375 1588.6875 C-90.9175293 1589.71315063 -90.9175293 1589.71315063 -89.87695312 1590.75952148 C-87.00524857 1593.64737773 -84.13961562 1596.54123075 -81.2734375 1599.43457031 C-79.16357213 1601.56265725 -77.05060355 1603.68762917 -74.9375 1605.8125 C-74.30392578 1606.45437256 -73.67035156 1607.09624512 -73.01757812 1607.75756836 C-69.24152279 1611.5539304 -65.33799875 1615.12766264 -61.28564453 1618.62670898 C-58.79232465 1620.81668043 -56.45471592 1623.13767531 -54.125 1625.5 C-53.66697998 1625.96180664 -53.20895996 1626.42361328 -52.73706055 1626.89941406 C-50.82108083 1628.83139565 -48.91128835 1630.76944784 -47.00097656 1632.70703125 C-41.925837 1637.84799174 -36.82452109 1642.87986485 -31.33203125 1647.578125 C-27.15829592 1651.26133886 -23.3333363 1655.31713565 -19.4375 1659.2890625 C-15.56210953 1663.20986771 -11.58253915 1666.90675095 -7.40625 1670.50390625 C-4.09994565 1673.43628332 -1.03030628 1676.59583011 2.0625 1679.75 C6.42622895 1684.16085229 10.79690974 1688.44763958 15.54296875 1692.44921875 C18.88896639 1695.43278724 21.99193757 1698.66000893 25.14135742 1701.84838867 C27.86606235 1704.59374508 30.61300028 1707.24292524 33.5625 1709.75 C37.65045909 1713.22476522 41.36922837 1717.02950812 45.13623047 1720.84326172 C48.48832646 1724.22080861 51.94464556 1727.39248896 55.5703125 1730.4765625 C58.90433825 1733.44449915 61.98510485 1736.66555269 65.12109375 1739.83984375 C67.83452727 1742.51854532 70.67027023 1744.99608118 73.56640625 1747.47265625 C76.6277964 1750.19855159 79.46215164 1753.14141358 82.33984375 1756.05859375 C84.9895144 1758.67101068 87.77422803 1761.08302621 90.59765625 1763.50390625 C93.37811832 1765.97481389 95.95368218 1768.6316694 98.5625 1771.28125 C100.50141002 1773.18986455 102.49949551 1774.97710552 104.5625 1776.75 C108.07251511 1779.76641923 111.31301276 1782.98095132 114.55859375 1786.27734375 C117.14496151 1788.82337829 119.8778528 1791.17021557 122.62890625 1793.53515625 C125.12681556 1795.7504738 127.44274989 1798.1189817 129.78125 1800.5 C131.64639674 1802.33242487 133.58177746 1804.04353135 135.5625 1805.75 C138.75862899 1808.50358806 141.73511845 1811.39710338 144.68823242 1814.40698242 C146.49250933 1816.18117629 148.35079691 1817.83932662 150.26953125 1819.48828125 C154.53498787 1823.19716094 158.6501821 1827.0473427 162.75 1830.9375 C169.45830939 1837.27686702 176.20714636 1843.56802925 183.00195312 1849.81445312 C185.69223777 1852.28924564 188.37702616 1854.76998979 191.0625 1857.25 C192.14580839 1858.25002702 193.22914169 1859.25002706 194.3125 1860.25 C213.81250001 1878.25000001 213.81250001 1878.25000001 215.43774414 1879.75024414 C216.52023871 1880.74945738 217.60275821 1881.74864362 218.68530273 1882.74780273 C221.40667508 1885.25961835 224.12760195 1887.77191333 226.84765625 1890.28515625 C232.56882222 1895.57042386 238.29854232 1900.8460005 244.04321289 1906.10571289 C247.72477543 1909.4780121 251.39551263 1912.8618627 255.0625 1916.25 C266.72873246 1927.0263035 266.72873246 1927.0263035 278.5 1937.6875 C283.46488091 1942.14397711 288.36384952 1946.66948062 293.26171875 1951.19921875 C300.79382854 1958.16470495 308.36461167 1965.08522842 316 1971.9375 C319.38571544 1974.99290174 322.7433191 1978.07856984 326.1015625 1981.1640625 C329.23917086 1984.04422607 332.39270941 1986.90531614 335.5625 1989.75 C339.2508049 1993.06001722 342.91315765 1996.397145 346.5625 1999.75 C351.86371923 2004.61943045 357.20354811 2009.44423024 362.5625 2014.25 C367.96543359 2019.09521141 373.34610539 2023.96212216 378.6875 2028.875 C381.94640494 2031.87180011 385.21749549 2034.84914547 388.5625 2037.75 C392.43911077 2041.11187407 396.21447903 2044.58082672 399.99121094 2048.05371094 C406.07703297 2053.64805964 412.19546846 2059.20496438 418.4375 2064.625 C422.404249 2068.07783819 426.26932669 2071.63877381 430.13793945 2075.20043945 C433.54848806 2078.33517052 437.00409116 2081.40726302 440.50390625 2084.44140625 C444.01692302 2087.5277948 447.45549818 2090.69628778 450.91015625 2093.84765625 C453.08710996 2095.81941844 455.28088674 2097.76365337 457.5 2099.6875 C460.9093858 2102.6488351 464.2404431 2105.69152486 467.5625 2108.75 C471.52112186 2112.39414329 475.5142676 2115.98913717 479.578125 2119.515625 C484.4878472 2123.80679952 489.30124818 2128.20802108 494.140625 2132.578125 C498.56371401 2136.56704577 503.00865005 2140.52567907 507.5 2144.4375 C510.73625077 2147.28147795 513.92658668 2150.17612701 517.125 2153.0625 C519.25667481 2154.97554149 521.4026911 2156.86887612 523.5625 2158.75 C527.45762811 2162.14253093 531.29032763 2165.60194201 535.125 2169.0625 C537.88989828 2171.54381897 540.68580719 2173.98711721 543.48828125 2176.42578125 C546.74801949 2179.29263202 549.95660784 2182.21588484 553.16796875 2185.13671875 C555.57238609 2187.25872492 558.04261097 2189.26720988 560.5625 2191.25 C565.84432704 2189.74523474 569.0405294 2186.28536639 572.875 2182.5625 C574.2179349 2181.28299811 575.56167591 2180.00434172 576.90625 2178.7265625 C577.54304688 2178.11844727 578.17984375 2177.51033203 578.8359375 2176.88378906 C581.38348842 2174.47312578 584.01875607 2172.17487276 586.67578125 2169.88671875 C588.99908787 2167.87126228 591.27998465 2165.81151538 593.5625 2163.75 C597.17926345 2160.48609152 600.82639608 2157.26209051 604.5 2154.0625 C606.87214429 2151.97788836 609.21806065 2149.86571356 611.5625 2147.75 C614.54312721 2145.06016569 617.53495233 2142.38689636 620.5625 2139.75 C625.27951284 2135.63918961 629.91888889 2131.44332155 634.5625 2127.25 C644.05122041 2118.68139793 644.05122041 2118.68139793 648.5 2114.8125 C652.69692081 2111.15821138 656.7990276 2107.40255027 660.91015625 2103.65234375 C663.08710996 2101.68058156 665.28088674 2099.73634663 667.5 2097.8125 C670.9093858 2094.8511649 674.2404431 2091.80847514 677.5625 2088.75 C681.52112186 2085.10585671 685.5142676 2081.51086283 689.578125 2077.984375 C693.61624691 2074.45499286 697.58164681 2070.84365774 701.5625 2067.25 C703.22890851 2065.74971321 704.89557353 2064.24971128 706.5625 2062.75 C707.39007812 2062.00492188 708.21765625 2061.25984375 709.0703125 2060.4921875 C710.70989879 2059.01707382 712.35049655 2057.54308348 713.9921875 2056.0703125 C718.5828061 2051.94902232 723.14697107 2047.80126212 727.6875 2043.625 C731.55888264 2040.0649821 735.47197915 2036.56294132 739.4453125 2033.1171875 C742.67138518 2030.27205329 745.8298544 2027.35367121 748.99560547 2024.44189453 C754.61658996 2019.27384427 760.29973334 2014.17596494 765.984375 2009.078125 C771.05122009 2004.52764629 776.08612488 1999.94394033 781.10107422 1995.33642578 C785.04313202 1991.71771524 789.01749497 1988.13654298 793 1984.5625 C795.86850409 1981.97384997 798.7172665 1979.36414854 801.5625 1976.75 C806.01585487 1972.65833893 810.49909854 1968.60177054 815 1964.5625 C818.38648321 1961.50640539 821.74494814 1958.42014388 825.10375977 1955.33374023 C828.21883125 1952.47397796 831.35101675 1949.63484641 834.5 1946.8125 C839.46762383 1942.35356085 844.36933252 1937.82561669 849.26953125 1933.29296875 C853.85820729 1929.04928568 858.46881603 1924.82959459 863.07861328 1920.60888672 C865.57414407 1918.32357504 868.06824527 1916.0367042 870.5625 1913.75 C871.56249325 1912.83332596 872.56249324 1911.9166593 873.5625 1911 C874.305 1910.319375 874.305 1910.319375 875.0625 1909.625 C879.5625 1905.5 879.5625 1905.5 881.06225586 1904.12524414 C882.06309668 1903.20779315 883.06391045 1902.29031264 884.06469727 1901.37280273 C886.55161261 1899.09289449 889.03898315 1896.81348707 891.52734375 1894.53515625 C898.89008932 1887.79253335 906.23000056 1881.02549058 913.5625 1874.25 C915.74975362 1872.22889977 917.93721457 1870.20802455 920.125 1868.1875 C920.66519775 1867.68855225 921.20539551 1867.18960449 921.76196289 1866.67553711 C925.31164752 1863.39894617 928.87232321 1860.13472657 932.4375 1856.875 C937.6328313 1852.12226598 942.78221421 1847.32137046 947.92529297 1842.51220703 C951.95748354 1838.74327603 956.00280328 1834.98927669 960.0625 1831.25 C965.38969972 1826.34274273 970.68756961 1821.4047795 975.97875977 1816.45874023 C979.97203152 1812.72816348 983.97960129 1809.01380955 988 1805.3125 C994.87885466 1798.97623871 1001.69721161 1792.57606127 1008.51416016 1786.17333984 C1011.86164574 1783.03013467 1015.21220457 1779.89020955 1018.5625 1776.75 C1019.89584857 1775.50001625 1021.22918189 1774.25001624 1022.5625 1773 C1030.5625 1765.5 1030.5625 1765.5 1032.56469727 1763.62304688 C1033.89084867 1762.37970904 1035.21685903 1761.13622075 1036.54272461 1759.89257812 C1039.98476858 1756.66436516 1043.42961833 1753.43922301 1046.87890625 1750.21875 C1047.9452832 1749.22198242 1047.9452832 1749.22198242 1049.03320312 1748.20507812 C1050.37863639 1746.94758168 1051.7249216 1745.69099582 1053.07226562 1744.43554688 C1056.19882021 1741.5115486 1059.27664811 1738.55351932 1062.29296875 1735.515625 C1064.55672632 1733.2363035 1066.84473524 1731.06024398 1069.3125 1729 C1072.72088502 1726.06720359 1075.90648814 1722.94926712 1079.0625 1719.75 C1082.1158662 1716.65507019 1085.18573779 1713.63065643 1088.5 1710.8125 C1092.03929126 1707.79647151 1095.29744145 1704.55551776 1098.5625 1701.25 C1101.78647793 1697.98617068 1104.99767874 1694.78169836 1108.5 1691.8125 C1112.79344262 1688.16441827 1116.7097711 1684.15792489 1120.64428711 1680.13110352 C1123.48932307 1677.24018699 1126.3948183 1674.49141383 1129.46875 1671.84375 C1133.71074484 1668.17817934 1137.63850758 1664.2506329 1141.5625 1660.25 C1145.4144502 1656.32281639 1149.25947714 1652.45736097 1153.4375 1648.875 C1158.40693727 1644.59468391 1162.96233582 1639.91986364 1167.5625 1635.25 C1177.05096005 1625.61777541 1177.05096005 1625.61777541 1181.3125 1622 C1187.75616529 1616.47500988 1193.59772259 1610.28008519 1199.5625 1604.25 C1202.01780773 1601.76780934 1204.47660847 1599.28915358 1206.9375 1596.8125 C1207.4835791 1596.25812256 1208.0296582 1595.70374512 1208.59228516 1595.13256836 C1211.28227195 1592.42594665 1214.01469023 1589.84246745 1216.93040466 1587.38011169 C1223.25543563 1581.86473074 1229.10171274 1575.85023076 1235.02758789 1569.91430664 C1236.37679247 1568.56645898 1237.72620928 1567.21882374 1239.07582092 1565.87138367 C1242.72266441 1562.22907988 1246.36636061 1558.58364304 1250.00934529 1554.93748021 C1253.83223815 1551.11204582 1257.65758142 1547.28906301 1261.48252869 1543.46568298 C1267.90397025 1537.04605788 1274.32330702 1530.62433375 1280.74145508 1524.20141602 C1288.14907359 1516.78835589 1295.56028755 1509.37890496 1302.97337919 1501.9713183 C1309.35166465 1495.59757887 1315.72798921 1489.22188267 1322.10269541 1482.84456342 C1325.90405616 1479.04164809 1329.70607874 1475.23940104 1333.50987434 1471.43892097 C1337.08675007 1467.86494561 1340.66114828 1464.28851039 1344.23369408 1460.71020699 C1345.54090107 1459.40168399 1346.84894816 1458.0939996 1348.15792084 1456.78724289 C1356.95850987 1448.02194664 1356.95850987 1448.02194664 1365.254035 1438.78220272 C1367.17905782 1436.52801541 1369.26378105 1434.45384932 1371.375 1432.375 C1372.22320313 1431.53453125 1373.07140625 1430.6940625 1373.9453125 1429.828125 C1375.69010417 1428.109375 1377.43489583 1426.390625 1379.1796875 1424.671875 C1383.61635041 1420.27566798 1387.88393655 1415.82717997 1391.94921875 1411.0859375 C1394.51504271 1408.16599256 1397.28357296 1405.46518825 1400.0625 1402.75 C1404.20636848 1398.65796669 1408.18547302 1394.51627622 1411.95703125 1390.07421875 C1414.36910242 1387.33349555 1416.98933372 1384.81433135 1419.58984375 1382.25390625 C1422.13587829 1379.66753849 1424.48271557 1376.9346472 1426.84765625 1374.18359375 C1428.52254299 1372.29505403 1430.26197587 1370.51844352 1432.0625 1368.75 C1434.35576036 1366.49202057 1436.52678028 1364.19003496 1438.625 1361.75 C1442.12362197 1357.69065081 1445.77267917 1353.78352851 1449.4375 1349.875 C1454.88450929 1344.06232836 1460.25705988 1338.19249109 1465.5625 1332.25 C1467.10374451 1330.54128579 1468.6454153 1328.83295599 1470.1875 1327.125 C1474.97384742 1321.80317482 1479.6991476 1316.43487465 1484.34765625 1310.9921875 C1485.37757479 1309.78643324 1486.40752353 1308.58070477 1487.4375 1307.375 C1487.95715332 1306.76648193 1488.47680664 1306.15796387 1489.01220703 1305.53100586 C1492.04142533 1301.99376142 1495.11398583 1298.50607423 1498.25 1295.0625 C1502.0229654 1290.90412415 1505.57830257 1286.60273616 1509.109375 1282.23828125 C1511.89702434 1278.84249822 1514.75457448 1275.51324985 1517.625 1272.1875 C1521.6645831 1267.49785456 1525.6264395 1262.76643676 1529.4609375 1257.90625 C1531.03634633 1255.91502694 1532.62422204 1253.93808176 1534.2265625 1251.96875 C1564.52835946 1214.62878776 1589.98035709 1174.18489773 1611.5625 1131.25 C1612.04283691 1130.30398926 1612.52317383 1129.35797852 1613.01806641 1128.38330078 C1649.7826124 1055.64975237 1669.71626937 972.77993723 1643.45248413 681.18322754 C1635.15313642 656.14116175 1624.92830822 632.054159 1613.5625 608.25 C1612.93093994 606.9189624 1612.93093994 606.9189624 1612.28662109 605.56103516 C1605.49688292 591.32801575 1597.65250315 577.77754625 1589.5625 564.25 C1589.08167969 563.43789063 1588.60085937 562.62578125 1588.10546875 561.7890625 C1577.07996743 543.16962799 1564.79662628 525.36491339 1551.5625 508.25 C1551.0989209 507.64752441 1550.6353418 507.04504883 1550.15771484 506.42431641 C1541.47867294 495.16493675 1532.40899704 484.26673002 1522.828125 473.76171875 C1520.94533409 471.67441779 1519.09401803 469.56665557 1517.25 467.4453125 C1513.68569312 463.36426685 1510.02344853 459.38522429 1506.3125 455.4375 C1505.3368811 454.39928101 1505.3368811 454.39928101 1504.34155273 453.34008789 C1497.14060388 445.70540026 1489.90585223 438.12998701 1481.91015625 431.31640625 C1479.29047528 429.01056393 1476.75598559 426.62647966 1474.21801758 424.23144531 C1467.54565928 417.93736115 1460.73927144 411.96839008 1453.5625 406.25 C1452.3370452 405.24661656 1451.11319515 404.24127123 1449.890625 403.234375 C1383.30756333 348.47862178 1305.25925304 308.11972207 1170.5625 282.25 C1169.48661621 282.11577637 1168.41073242 281.98155273 1167.30224609 281.84326172 C1080.07941253 271.56729906 988.61850715 289.8085425 908.5625 324.25 C907.71075195 324.6123877 906.85900391 324.97477539 905.98144531 325.34814453 C847.63144072 350.29283058 793.22369569 385.13493292 745.33886719 426.71630859 C743.51931497 428.28728537 741.68751894 429.84276817 739.8515625 431.39453125 C734.18072746 436.19500791 728.63240378 440.99035158 723.46899414 446.34448242 C721.72689089 448.08569332 719.93884919 449.67684855 718.05859375 451.265625 C712.98683671 455.67186001 708.25461183 460.4075815 703.5168457 465.1652832 C702.0025742 466.68491668 700.4830257 468.19912517 698.96289062 469.71289062 C694.1769567 474.49550282 689.4964742 479.32605799 685.09399414 484.46899414 C682.65971072 487.29987212 680.1077161 490.01915567 677.5625 492.75 C669.66168704 501.23230804 669.66168704 501.23230804 662.3125 510.1875 C658.40361561 514.9011547 653.36345072 518.50166415 648.5625 522.25 C647.76328125 522.8996875 646.9640625 523.549375 646.140625 524.21875 C617.57585956 546.4155741 580.66613527 554.48561146 545.11328125 550.75390625 C517.32543627 547.231093 487.97112748 535.25869355 468.22265625 514.8828125 C465.94937392 512.01551852 465.94937392 512.01551852 463.5625 512.25 C463.16224609 511.35474609 463.16224609 511.35474609 462.75390625 510.44140625 C461.53763068 508.20425676 460.35892741 506.90579933 458.5 505.1875 C455.46892756 502.25683576 452.81848005 499.16948465 450.1875 495.875 C446.66364667 491.49415513 442.96076303 487.49661542 438.8984375 483.61328125 C437.01022461 481.70296553 435.27767782 479.77280143 433.53515625 477.734375 C429.00457621 472.51243233 424.11526716 467.65281186 419.2199707 462.77709961 C417.62791034 461.19040054 416.0412701 459.59842258 414.45507812 458.00585938 C409.54452936 453.09209982 404.59639635 448.27178639 399.31274414 443.75512695 C396.54809788 441.37766228 393.90916092 438.86890707 391.25 436.375 C386.50750684 431.96773789 381.66200345 427.75935609 376.609375 423.70703125 C374.30721342 421.85054454 372.03067659 419.97504376 369.765625 418.07421875 C359.34367867 409.34898304 348.59801465 401.18192124 337.5625 393.25 C336.82999023 392.72132324 336.09748047 392.19264648 335.34277344 391.64794922 C310.30585036 373.61345226 283.88737717 357.57420562 256.5625 343.25 C255.58829102 342.73759766 254.61408203 342.22519531 253.61035156 341.69726562 C194.19315558 310.66213531 129.93028963 291.06098179 63.5625 282.25 C62.34981445 282.08483887 61.13712891 281.91967773 59.88769531 281.74951172 C20.98207581 276.68874577 -20.59526098 276.61938085 -59.4375 282.25 Z " fill="#FF0000" transform="translate(1104.4375,418.75)"/>
</svg>
