<?xml version="1.0" encoding="UTF-8"?>
<svg version="1.1" xmlns="http://www.w3.org/2000/svg" width="3333" height="3333">
<path d="M0 0 C1.15900063 -0.00066278 1.15900063 -0.00066278 2.34141541 -0.00133896 C28.86901838 -0.00927283 55.20734687 0.63782548 81.625 3.25 C82.9255835 3.37728485 82.9255835 3.37728485 84.25244141 3.50714111 C124.90648051 7.5282909 164.94027089 14.59633643 204.625 24.25 C205.72593994 24.51750061 205.72593994 24.51750061 206.84912109 24.79040527 C242.50223096 33.49476211 277.51831661 44.70790336 311.625 58.25 C312.24101074 58.49407593 312.85702148 58.73815186 313.49169922 58.98962402 C351.36576237 74.02464477 388.44120102 91.66271439 423.625 112.25 C425.46742388 113.31774982 427.30987197 114.38545785 429.15234375 115.453125 C447.7877981 126.30849049 465.99869978 137.82003087 483.625 150.25 C484.19557129 150.65105957 484.76614258 151.05211914 485.35400391 151.46533203 C489.46743319 154.36189648 493.55138226 157.29777716 497.625 160.25 C498.71385498 161.03697266 498.71385498 161.03697266 499.82470703 161.83984375 C509.73035663 169.01382874 519.41141619 176.37900085 528.84765625 184.16015625 C531.89219202 186.66719123 534.9860217 189.10004444 538.10766602 191.51000977 C544.33546891 196.3200175 550.20785571 201.38239371 555.953125 206.7578125 C558.18615258 208.84066571 560.44431447 210.87366496 562.75 212.875 C567.42886161 216.94149526 572.04177563 221.07599209 576.625 225.25 C577.12257813 225.70101074 577.62015625 226.15202148 578.1328125 226.61669922 C587.21033201 234.8697519 595.94210401 243.46121716 604.625 252.125 C605.16738312 252.66479492 605.70976624 253.20458984 606.26858521 253.76074219 C611.71403138 259.18567996 617.09322862 264.62355108 622.09082031 270.47070312 C624.63455064 273.42084739 627.32759594 276.22940824 630 279.0625 C634.62772311 284.00748862 639.02327818 289.06227238 643.2578125 294.3515625 C646.09486819 297.82531715 649.04373181 301.19029175 652 304.5625 C656.65444124 309.89032684 661.12521979 315.31959326 665.46044922 320.90942383 C668.9515197 325.40974021 672.52154408 329.83925576 676.125 334.25 C680.63292127 339.77312948 685.07343192 345.3418514 689.4609375 350.9609375 C692.96276247 355.43436708 696.53311164 359.84867202 700.125 364.25 C704.63259973 369.77339685 709.07342642 375.34184436 713.4609375 380.9609375 C716.96276247 385.43436708 720.53311164 389.84867202 724.125 394.25 C728.63259973 399.77339685 733.07342642 405.34184436 737.4609375 410.9609375 C740.96276247 415.43436708 744.53311164 419.84867202 748.125 424.25 C752.63259973 429.77339685 757.07342642 435.34184436 761.4609375 440.9609375 C764.96276247 445.43436708 768.53311164 449.84867202 772.125 454.25 C776.63259973 459.77339685 781.07342642 465.34184436 785.4609375 470.9609375 C788.96276559 475.43437108 792.5332844 479.84852729 796.125 484.25 C805.50488707 495.75207098 814.60178548 507.46697366 823.625 519.25 C827.30144385 515.7114228 830.51854471 511.98839177 833.625 507.9375 C837.72555556 502.65246485 841.89229667 497.42978953 846.125 492.25 C850.17510162 487.28791163 854.18305691 482.29845343 858.125 477.25 C862.6070011 471.50989332 867.18456557 465.85306754 871.7890625 460.2109375 C875.28030083 455.92548382 878.72318888 451.60670547 882.125 447.25 C886.6070011 441.50989332 891.18456557 435.85306754 895.7890625 430.2109375 C899.28030083 425.92548382 902.72318888 421.60670547 906.125 417.25 C910.6070011 411.50989332 915.18456557 405.85306754 919.7890625 400.2109375 C923.28030083 395.92548382 926.72318888 391.60670547 930.125 387.25 C934.6070011 381.50989332 939.18456557 375.85306754 943.7890625 370.2109375 C947.28030083 365.92548382 950.72318888 361.60670547 954.125 357.25 C958.60411268 351.51359254 963.17844678 345.86017959 967.78027344 340.22192383 C971.35884567 335.82960429 974.88618768 331.40138116 978.375 326.9375 C985.24355014 318.15679456 992.32181786 309.56329574 999.55004883 301.0769043 C1002.36630575 297.76414954 1005.10542393 294.40318134 1007.8125 291 C1013.00416492 284.61527743 1018.69245943 278.70776612 1024.3671875 272.75390625 C1027.0977737 269.88651387 1029.78333812 266.98380375 1032.44319153 264.0506897 C1038.49051842 257.39033796 1044.75101138 250.96954489 1051.1237793 244.62084961 C1052.82523778 242.92480274 1054.52121263 241.22340179 1056.21679688 239.52148438 C1061.30068719 234.43449404 1066.3954185 229.43105826 1071.86987305 224.76000977 C1074.81412577 222.22694493 1077.61288465 219.53970067 1080.4375 216.875 C1085.48410944 212.14803624 1090.65834148 207.67490857 1096.05859375 203.3515625 C1098.60059363 201.26998573 1101.02029335 199.0996162 1103.4375 196.875 C1108.93280788 191.88004983 1114.74941961 187.34009163 1120.62109375 182.80371094 C1122.76513596 181.14134682 1124.89880656 179.46627563 1127.03125 177.7890625 C1135.4365233 171.18979926 1143.90859179 164.7417555 1152.66845703 158.62060547 C1154.89812444 157.05866976 1157.11890968 155.48448364 1159.33984375 153.91015625 C1169.93574581 146.41879908 1180.64657201 139.16843605 1191.625 132.25 C1192.43018066 131.74114258 1193.23536133 131.23228516 1194.06494141 130.70800781 C1207.04854811 122.52328544 1220.21544559 114.71580795 1233.625 107.25 C1234.52992188 106.74533203 1235.43484375 106.24066406 1236.3671875 105.72070312 C1285.89709335 78.21565037 1337.58093601 56.07909726 1391.56292725 38.90631104 C1393.52810402 38.28083979 1395.49190922 37.65121853 1397.45556641 37.02099609 C1476.70160611 11.76932118 1560.56828971 -0.27963117 1643.65016174 -0.06805801 C1645.92347281 -0.06237891 1648.19677629 -0.05958246 1650.47009277 -0.05697632 C1675.94534154 -0.01464298 1701.25845177 0.74175861 1726.625 3.25 C1727.49205566 3.33485657 1728.35911133 3.41971313 1729.25244141 3.50714111 C1812.76823162 11.76780868 1894.93330462 32.0452871 2020.2265625 86.57421875 C2023.46951542 88.17333002 2026.71857173 89.75938992 2029.96875 91.34375 C2062.24117106 107.16681194 2092.98500128 125.95675013 2122.625 146.25 C2123.49560059 146.84377441 2124.36620117 147.43754883 2125.26318359 148.04931641 C2138.38244084 157.02143762 2151.06453748 166.51446449 2163.625 176.25 C2164.30852539 176.77754883 2164.99205078 177.30509766 2165.69628906 177.84863281 C2173.14015121 183.59845355 2180.39860931 189.52770805 2187.546875 195.640625 C2190.34166189 198.02472092 2193.19551045 200.32805515 2196.0625 202.625 C2201.74640811 207.24525279 2207.05824514 212.22706311 2212.39453125 217.23828125 C2214.8825575 219.5710305 2217.4119093 221.84050464 2220 224.0625 C2223.39045101 226.98405885 2226.51318542 230.12104763 2229.65234375 233.30859375 C2231.43996108 235.06789239 2233.27226126 236.69509536 2235.1875 238.3125 C2244.08517528 245.97438705 2252.51583911 254.52738749 2260.08984375 263.49609375 C2261.85111488 265.50833482 2263.71979839 267.37371986 2265.625 269.25 C2268.83934731 272.4211603 2271.84250963 275.70582753 2274.78515625 279.12890625 C2276.82008819 281.47491058 2278.90790967 283.7673645 2281 286.0625 C2284.89863397 290.38260791 2288.60003858 294.83071381 2292.2578125 299.35546875 C2294.3091017 301.86372832 2296.39967328 304.33138433 2298.51245117 306.7878418 C2305.0250142 314.37396835 2311.0798826 322.2745283 2317.10546875 330.25 C2318.47448237 332.05188939 2319.85683908 333.84175403 2321.25 335.625 C2373.372377 402.44856025 2413.92215128 479.77259215 2459.625 613.25 C2459.90799957 614.24308167 2459.90799957 614.24308167 2460.19671631 615.25622559 C2472.76997238 659.39959267 2481.21479947 704.53933272 2486.375 750.125 C2486.52684753 751.44839386 2486.52684753 751.44839386 2486.6817627 752.79852295 C2487.41595124 759.27516886 2488.04135191 765.75819381 2488.625 772.25 C2488.71929291 773.24063446 2488.81358582 774.23126892 2488.91073608 775.25192261 C2491.44925849 802.86553404 2490.9652823 830.63410201 2490.93868077 858.33547306 C2490.93522937 863.15900962 2490.94471871 867.98240118 2490.96118164 872.8059082 C2491.24578117 958.23992484 2481.73244669 1041.84720186 2398.625 1279.25 C2398.16770508 1280.19182129 2397.71041016 1281.13364258 2397.23925781 1282.10400391 C2390.25157244 1296.47931777 2382.66247748 1310.4358589 2374.625 1324.25 C2373.99400391 1325.33506836 2373.36300781 1326.42013672 2372.71289062 1327.53808594 C2358.96031495 1351.11296024 2344.42132277 1373.98729876 2328.625 1396.25 C2327.76044189 1397.47227295 2327.76044189 1397.47227295 2326.87841797 1398.71923828 C2311.9308667 1419.80901784 2295.78773641 1439.9995797 2278.99316406 1459.64355469 C2277.59983444 1461.27954842 2276.21720031 1462.92412368 2274.8359375 1464.5703125 C2267.57694551 1473.18326216 2259.9455176 1481.40136256 2252.17393659 1489.55230663 C2250.3496281 1491.48308237 2248.53871828 1493.42211714 2246.7382053 1495.37476039 C2235.63345463 1507.38166375 2224.0835101 1518.93805393 2212.51666727 1530.49602623 C2209.51860331 1533.49291404 2206.52346151 1536.49272023 2203.52792063 1539.49212959 C2198.27028095 1544.75576743 2193.0108135 1550.01757329 2187.75011907 1555.27815802 C2179.87487195 1563.15325384 2172.00248892 1571.03120827 2164.13063164 1578.90969235 C2150.71205063 1592.33939269 2137.29108474 1605.76670738 2123.86879539 1619.19270134 C2110.27203807 1632.79321819 2096.67634222 1646.39479479 2083.08192444 1659.99765015 C2082.22248933 1660.85761635 2081.36305423 1661.71758254 2080.47757564 1662.60360832 C2076.97711768 1666.10623307 2073.47666465 1669.60886273 2069.97621856 1673.11149933 C2027.59183853 1715.52234835 1985.20201992 1757.92775938 1942.81095472 1800.33192607 C1929.5593688 1813.5876107 1916.30792364 1826.84343603 1903.05658612 1840.09936897 C1898.64608973 1844.51139427 1894.23558998 1848.92341619 1889.82508943 1853.33543732 C1889.33930651 1853.82138772 1888.85352358 1854.30733813 1888.35301996 1854.8080143 C1838.52127271 1904.65692855 1788.68881103 1954.50512876 1687.20116484 2056.01422169 C1681.40893184 2061.8074387 1675.61670903 2067.6006659 1669.82448767 2073.39389455 C1669.30221803 2073.91625497 1668.77994839 2074.43861539 1668.24185239 2074.97680491 C1657.66032654 2085.56017059 1647.07881091 2096.1435465 1636.49730975 2106.72693687 C1633.84481009 2109.37991005 1631.19230957 2112.03288236 1628.53980695 2114.68585258 C1578.41719947 2164.81730004 1528.29676135 2214.9509131 1478.1842041 2265.09240723 C1477.65623857 2265.62067742 1477.12827304 2266.14894761 1476.58430855 2266.693226 C1459.02506826 2284.26260995 1441.46609157 2301.83225735 1423.9071424 2319.40193225 C1408.04110939 2335.27765537 1392.17501443 2351.15331657 1376.30870533 2367.02876377 C1375.78749192 2367.55027755 1375.26627851 2368.07179133 1374.72927075 2368.60910856 C1342.09901137 2401.25814152 1309.4657387 2433.90416019 1276.82931805 2466.54703426 C1276.32545231 2467.05100038 1275.82158658 2467.55496649 1275.30245219 2468.0742043 C1253.17681188 2490.20424532 1231.05051777 2512.33363254 1208.92349008 2534.46228636 C1200.02279579 2543.36363902 1191.12218638 2552.26507655 1182.22161907 2561.16655617 C1180.74586487 2562.64245977 1179.27010752 2564.11836023 1177.79434969 2565.59426019 C1155.21118712 2588.17963503 1132.63001697 2610.76699712 1110.05469346 2633.3602078 C1109.56754473 2633.8477423 1109.08039599 2634.3352768 1108.57848518 2634.83758508 C1100.74184038 2642.68045837 1092.90535677 2650.52349272 1085.06889598 2658.36654987 C1052.9901479 2690.47229302 1020.90376951 2722.57038793 988.80591097 2754.65702775 C984.44475227 2759.01666478 980.0836817 2763.37638996 975.72266388 2767.73616791 C974.86773623 2768.59084583 974.01280857 2769.44552376 973.13197402 2770.32610101 C959.55834304 2783.89622784 945.99316191 2797.4747694 932.43142633 2811.05678318 C919.11825084 2824.38951969 905.79628625 2837.71341884 892.46471823 2851.02776501 C884.63511057 2858.84779814 876.81252842 2866.67470881 868.99984973 2874.51165586 C863.82382662 2879.70240812 858.63894692 2884.88419511 853.44647852 2890.05849649 C850.49475737 2893.00040558 847.54723049 2895.94621781 844.61046511 2898.90306311 C841.95174579 2901.57981826 839.28202589 2904.24503562 836.60262914 2906.90108845 C835.18005553 2908.31727167 833.76985052 2909.74584545 832.36005188 2911.17474657 C831.52289864 2912.00002973 830.6857454 2912.82531288 829.82322388 2913.67560462 C828.74345407 2914.75571651 828.74345407 2914.75571651 827.64187073 2915.85764885 C825.625 2917.25 825.625 2917.25 823.62638726 2917.21377058 C821.05192497 2915.97403499 819.42787029 2914.42763598 817.40458001 2912.40406617 C816.56246179 2911.56911225 815.72034357 2910.73415832 814.85270661 2909.87390276 C813.93006642 2908.94385407 813.00742623 2908.01380538 812.05682725 2907.0555734 C811.05993772 2906.06140508 810.06239088 2905.06789549 809.06424598 2904.07498756 C806.30170981 2901.32309101 803.54868134 2898.56184659 800.79700918 2895.79909274 C797.79872312 2892.79203304 794.79176019 2889.79367158 791.78587618 2886.79421034 C786.4913594 2881.50858252 781.20249382 2876.21735115 775.91718664 2870.92251497 C768.00477194 2862.99589298 760.08375474 2855.07790925 752.16098991 2847.16163403 C738.66088674 2833.67208255 725.16793506 2820.17539815 711.67880249 2806.67487717 C698.00142956 2792.98601233 684.32081049 2779.30040403 670.63617897 2765.61879539 C669.34154752 2764.32444378 669.34154752 2764.32444378 668.02076189 2763.00394364 C663.62013778 2758.60429987 659.21946144 2754.20470835 654.81876748 2749.80513444 C622.93250083 2717.926755 591.05358252 2686.04103649 559.17860985 2654.15136528 C551.29189825 2646.26102322 543.40516795 2638.37069986 535.51835036 2630.48046374 C535.02808391 2629.98998459 534.53781745 2629.49950544 534.03269444 2628.99416329 C511.3286327 2606.28030894 488.62089394 2583.57013214 465.91224857 2560.86086047 C464.42734014 2559.37591036 462.94243365 2557.89095831 461.45752778 2556.40600563 C452.50348624 2547.4516832 443.54941354 2538.49739192 434.59530226 2529.54313924 C412.33383763 2507.28131623 390.0728684 2485.0189979 367.812253 2462.75632572 C367.30544557 2462.2494719 366.79863814 2461.74261807 366.27647291 2461.22040503 C333.44528155 2428.38619672 300.61618091 2395.54989891 267.7887373 2362.71194363 C267.26453468 2362.18757331 266.74033205 2361.66320299 266.20024451 2361.12294267 C249.17526394 2344.09250965 232.15043578 2327.06192428 215.12562027 2310.03132626 C198.53534421 2293.43541639 181.94502444 2276.83955023 165.35455322 2260.24383545 C164.82359255 2259.71270687 164.29263189 2259.1815783 163.7455815 2258.63435492 C113.33948156 2208.21234694 62.92790094 2157.79581993 12.51514724 2107.38046461 C9.84695012 2104.7121292 7.17875458 2102.0437922 4.51055889 2099.37545535 C-2.94544857 2091.91905415 -10.40145943 2084.46265636 -17.85747053 2077.00625879 C-18.92032637 2075.94334785 -19.98318221 2074.88043691 -21.04603806 2073.81752597 C-21.57192375 2073.29161301 -22.09780945 2072.76570006 -22.63963107 2072.22385035 C-26.88339241 2067.9798689 -31.12715285 2063.73588656 -35.3709129 2059.49190383 C-38.01789144 2056.84478659 -40.6648706 2054.19766998 -43.31185108 2051.55055468 C-75.59258709 2019.26817359 -107.87266753 1986.98513713 -140.15187359 1954.70122623 C-140.65853418 1954.19449181 -141.16519477 1953.68775739 -141.6872087 1953.16566737 C-165.43449978 1929.41490711 -189.1815408 1905.66389685 -212.92839736 1881.91270214 C-213.66868589 1881.1722784 -213.66868589 1881.1722784 -214.42392975 1880.41689659 C-224.34596167 1870.49305092 -234.2679815 1860.56919317 -244.18997439 1850.64530848 C-264.91968612 1829.91164575 -285.64957048 1809.17815568 -306.38007394 1788.44528455 C-308.85283685 1785.97223887 -311.32559773 1783.49919117 -313.79835873 1781.02614357 C-314.28724216 1780.53720351 -314.77612558 1780.04826346 -315.27982366 1779.54450703 C-354.34715635 1740.47264618 -393.41303258 1701.3993309 -432.47496752 1662.32207345 C-435.98063103 1658.81504708 -439.486301 1655.30802715 -442.99197578 1651.80101204 C-443.85235089 1650.94030608 -444.71272599 1650.07960012 -445.59917306 1649.19281216 C-459.24297123 1635.54385067 -472.88842952 1621.89655014 -486.53456498 1608.2499255 C-499.94086612 1594.84306844 -513.34537587 1581.43442252 -526.74795735 1568.02384696 C-534.61322868 1560.15398757 -542.47986129 1552.28549481 -550.34848824 1544.41899048 C-555.56851036 1539.20010329 -560.78673072 1533.97941926 -566.00346472 1528.75724531 C-568.96438455 1525.79333877 -571.92608129 1522.83022035 -574.8899894 1519.86930183 C-577.58017302 1517.18180193 -580.26804202 1514.49200931 -582.95409946 1511.80038562 C-584.36937978 1510.383347 -585.78709798 1508.9687445 -587.2049251 1507.5542541 C-591.61936748 1503.12593842 -595.89692838 1498.64261261 -599.95836614 1493.88699966 C-601.82559933 1491.72930728 -603.82768898 1489.73619726 -605.875 1487.75 C-609.24600065 1484.41879193 -612.4201403 1480.99888372 -615.50390625 1477.40234375 C-617.70579829 1474.86947838 -619.97695826 1472.40667478 -622.25 1469.9375 C-626.34380209 1465.44851943 -630.22969667 1460.83756524 -634.04296875 1456.109375 C-636.07992358 1453.61180224 -638.15857627 1451.15746921 -640.26025391 1448.71435547 C-646.77561961 1441.12669344 -652.83219923 1433.22323442 -658.85986328 1425.24560547 C-660.21703403 1423.45805895 -661.5859756 1421.68098692 -662.96484375 1419.91015625 C-682.41697584 1394.90927984 -700.11796088 1368.43013605 -716.375 1341.25 C-716.92816895 1340.32622559 -717.48133789 1339.40245117 -718.05126953 1338.45068359 C-762.55039335 1263.82599129 -795.10499141 1183.89492191 -842.67578125 898.671875 C-842.67869614 896.70638726 -842.68162021 894.74089946 -842.685188 892.7754128 C-842.69612461 886.62206637 -842.69681462 880.46878102 -842.69067383 874.31542969 C-842.68533364 868.79322234 -842.69234885 863.27120069 -842.71118164 857.74902344 C-842.81861739 825.47297806 -842.48312071 793.39968069 -839.375 761.25 C-839.26795746 760.1131073 -839.16091492 758.9762146 -839.05062866 757.80487061 C-838.48809633 751.95955543 -837.82195244 746.13523188 -837.0625 740.3125 C-836.95861969 739.4904306 -836.85473938 738.66836121 -836.74771118 737.82138062 C-834.51741187 720.19845204 -831.7141985 702.69579523 -828.375 685.25 C-828.16164001 684.13229218 -828.16164001 684.13229218 -827.94396973 682.99200439 C-814.64814189 613.69808265 -792.2998844 547.09182718 -762.375 483.25 C-761.90481445 482.24114746 -761.43462891 481.23229492 -760.95019531 480.19287109 C-738.52768439 432.19776731 -710.7125957 386.9160735 -679.375 344.25 C-678.8711377 343.56309082 -678.36727539 342.87618164 -677.84814453 342.16845703 C-670.77913593 332.55985016 -663.41244696 323.23064819 -655.83105469 314.02197266 C-654.53996651 312.45075905 -653.25761416 310.87237609 -651.9765625 309.29296875 C-643.25732347 298.5434376 -634.23799682 288.08596853 -624.8359375 277.9296875 C-622.74396146 275.65175803 -620.70372566 273.34466061 -618.6875 271 C-615.71984358 267.57196729 -612.5456742 264.40290305 -609.31640625 261.22265625 C-607.55710761 259.43503892 -605.92990464 257.60273874 -604.3125 255.6875 C-596.65061295 246.78982472 -588.09761251 238.35916089 -579.12890625 230.78515625 C-577.11666518 229.02388512 -575.25128014 227.15520161 -573.375 225.25 C-570.2038397 222.03565269 -566.91917247 219.03249037 -563.49609375 216.08984375 C-561.15008942 214.05491181 -558.8576355 211.96709033 -556.5625 209.875 C-552.24239209 205.97636603 -547.79428619 202.27496142 -543.26953125 198.6171875 C-540.76180768 196.56633665 -538.29460567 194.47632437 -535.83886719 192.36376953 C-528.35648179 185.94142706 -520.58650547 179.94126288 -512.7109375 174.01074219 C-510.27148079 172.1719711 -507.83874009 170.32453731 -505.40625 168.4765625 C-495.88886811 161.26692382 -486.28346584 154.24601544 -476.37011719 147.59033203 C-474.31764831 146.21147078 -472.27204674 144.8227907 -470.2265625 143.43359375 C-451.12511404 130.51935831 -431.51500251 118.4713528 -411.375 107.25 C-410.15321045 106.56188232 -410.15321045 106.56188232 -408.90673828 105.85986328 C-370.63736052 84.32623242 -330.68334291 65.7822984 -289.3427124 50.95581055 C-287.99132812 50.47107442 -286.64048519 49.98482723 -285.2901001 49.49731445 C-210.23209112 22.40839117 -131.94661825 6.61636597 -52.375 1.25 C-51.70321716 1.20194214 -51.03143433 1.15388428 -50.33929443 1.10437012 C-33.58474139 -0.07098709 -16.78702831 0.00440559 0 0 Z " fill="#FF0000" transform="translate(842.375,207.75)"/>
</svg>
